<?xml version="1.0" encoding="UTF-8"?>
<!--Generator: Apple Native CoreSVG 149-->
<!DOCTYPE svg
PUBLIC "-//W3C//DTD SVG 1.1//EN"
       "http://www.w3.org/Graphics/SVG/1.1/DTD/svg11.dtd">
<svg version="1.1" xmlns="http://www.w3.org/2000/svg" xmlns:xlink="http://www.w3.org/1999/xlink" width="3300" height="2200">
 <!--glyph: "uni10033F.medium", point size: 100.000000, font version: "Version 16.0d18e1", template writer version: "8"-->
 <g id="Notes">
  <rect height="2200" id="artboard" style="fill:white;opacity:1" width="3300" x="0" y="0"/>
  <line id="" style="fill:none;stroke:black;opacity:1;stroke-width:0.5;" x1="263" x2="3036" y1="292" y2="292"/>
  <text style="stroke:none;fill:black;font-family:-apple-system,&quot;SF Pro Display&quot;,&quot;SF Pro Text&quot;,Helvetica,sans-serif;font-weight:bold;" transform="matrix(1 0 0 1 263 322)">Weight/Scale Variations</text>
  <text style="stroke:none;fill:black;font-family:-apple-system,&quot;SF Pro Display&quot;,&quot;SF Pro Text&quot;,Helvetica,sans-serif;text-anchor:middle;" transform="matrix(1 0 0 1 559.711 322)">Ultralight</text>
  <text style="stroke:none;fill:black;font-family:-apple-system,&quot;SF Pro Display&quot;,&quot;SF Pro Text&quot;,Helvetica,sans-serif;text-anchor:middle;" transform="matrix(1 0 0 1 856.422 322)">Thin</text>
  <text style="stroke:none;fill:black;font-family:-apple-system,&quot;SF Pro Display&quot;,&quot;SF Pro Text&quot;,Helvetica,sans-serif;text-anchor:middle;" transform="matrix(1 0 0 1 1153.13 322)">Light</text>
  <text style="stroke:none;fill:black;font-family:-apple-system,&quot;SF Pro Display&quot;,&quot;SF Pro Text&quot;,Helvetica,sans-serif;text-anchor:middle;" transform="matrix(1 0 0 1 1449.84 322)">Regular</text>
  <text style="stroke:none;fill:black;font-family:-apple-system,&quot;SF Pro Display&quot;,&quot;SF Pro Text&quot;,Helvetica,sans-serif;text-anchor:middle;" transform="matrix(1 0 0 1 1746.56 322)">Medium</text>
  <text style="stroke:none;fill:black;font-family:-apple-system,&quot;SF Pro Display&quot;,&quot;SF Pro Text&quot;,Helvetica,sans-serif;text-anchor:middle;" transform="matrix(1 0 0 1 2043.27 322)">Semibold</text>
  <text style="stroke:none;fill:black;font-family:-apple-system,&quot;SF Pro Display&quot;,&quot;SF Pro Text&quot;,Helvetica,sans-serif;text-anchor:middle;" transform="matrix(1 0 0 1 2339.98 322)">Bold</text>
  <text style="stroke:none;fill:black;font-family:-apple-system,&quot;SF Pro Display&quot;,&quot;SF Pro Text&quot;,Helvetica,sans-serif;text-anchor:middle;" transform="matrix(1 0 0 1 2636.69 322)">Heavy</text>
  <text style="stroke:none;fill:black;font-family:-apple-system,&quot;SF Pro Display&quot;,&quot;SF Pro Text&quot;,Helvetica,sans-serif;text-anchor:middle;" transform="matrix(1 0 0 1 2933.4 322)">Black</text>
  <line id="" style="fill:none;stroke:black;opacity:1;stroke-width:0.5;" x1="263" x2="3036" y1="1903" y2="1903"/>
  <g id="" transform="matrix(1 0 0 1 263 1933)">
   <path d="M9.24805 0.830078C13.5547 0.830078 17.1387-2.74414 17.1387-7.05078C17.1387-11.3574 13.5449-14.9316 9.23828-14.9316C4.94141-14.9316 1.36719-11.3574 1.36719-7.05078C1.36719-2.74414 4.95117 0.830078 9.24805 0.830078ZM9.24805-0.654297C5.70312-0.654297 2.87109-3.49609 2.87109-7.05078C2.87109-10.6055 5.69336-13.4473 9.23828-13.4473C12.793-13.4473 15.6348-10.6055 15.6445-7.05078C15.6543-3.49609 12.8027-0.654297 9.24805-0.654297ZM6.39648-6.31836L8.50586-6.31836L8.50586-4.19922C8.50586-3.75977 8.79883-3.45703 9.22852-3.45703C9.67773-3.45703 9.9707-3.75977 9.9707-4.19922L9.9707-6.31836L12.0996-6.31836C12.5391-6.31836 12.8418-6.61133 12.8418-7.04102C12.8418-7.48047 12.5391-7.7832 12.0996-7.7832L9.9707-7.7832L9.9707-9.89258C9.9707-10.3418 9.67773-10.6445 9.22852-10.6445C8.79883-10.6445 8.50586-10.3418 8.50586-9.89258L8.50586-7.7832L6.39648-7.7832C5.94727-7.7832 5.64453-7.48047 5.64453-7.04102C5.64453-6.61133 5.94727-6.31836 6.39648-6.31836Z"/>
  </g>
  <g id="" transform="matrix(1 0 0 1 281.506 1933)">
   <path d="M11.709 2.91016C17.1582 2.91016 21.6699-1.61133 21.6699-7.05078C21.6699-12.5 17.1484-17.0117 11.6992-17.0117C6.25977-17.0117 1.74805-12.5 1.74805-7.05078C1.74805-1.61133 6.26953 2.91016 11.709 2.91016ZM11.709 1.25C7.09961 1.25 3.41797-2.44141 3.41797-7.05078C3.41797-11.6602 7.08984-15.3516 11.6992-15.3516C16.3086-15.3516 20-11.6602 20.0098-7.05078C20.0195-2.44141 16.3184 1.25 11.709 1.25ZM7.98828-6.23047L10.8789-6.23047L10.8789-3.32031C10.8789-2.83203 11.2109-2.5 11.6895-2.5C12.1777-2.5 12.5195-2.83203 12.5195-3.32031L12.5195-6.23047L15.4297-6.23047C15.918-6.23047 16.25-6.5625 16.25-7.04102C16.25-7.5293 15.918-7.87109 15.4297-7.87109L12.5195-7.87109L12.5195-10.7617C12.5195-11.2695 12.1777-11.6016 11.6895-11.6016C11.2109-11.6016 10.8789-11.2598 10.8789-10.7617L10.8789-7.87109L7.98828-7.87109C7.48047-7.87109 7.14844-7.5293 7.14844-7.04102C7.14844-6.5625 7.49023-6.23047 7.98828-6.23047Z"/>
  </g>
  <g id="" transform="matrix(1 0 0 1 304.924 1933)">
   <path d="M14.9707 5.66406C21.9336 5.66406 27.6953-0.0976562 27.6953-7.05078C27.6953-14.0137 21.9238-19.7754 14.9609-19.7754C8.00781-19.7754 2.25586-14.0137 2.25586-7.05078C2.25586-0.0976562 8.01758 5.66406 14.9707 5.66406ZM14.9707 3.84766C8.93555 3.84766 4.08203-1.01562 4.08203-7.05078C4.08203-13.0957 8.92578-17.9492 14.9609-17.9492C21.0059-17.9492 25.8594-13.0957 25.8691-7.05078C25.8789-1.01562 21.0156 3.84766 14.9707 3.84766ZM10.0586-6.14258L14.0625-6.14258L14.0625-2.12891C14.0625-1.5918 14.4336-1.2207 14.9512-1.2207C15.4883-1.2207 15.8594-1.5918 15.8594-2.12891L15.8594-6.14258L19.8828-6.14258C20.4102-6.14258 20.791-6.51367 20.791-7.03125C20.791-7.56836 20.4199-7.94922 19.8828-7.94922L15.8594-7.94922L15.8594-11.9531C15.8594-12.5098 15.4883-12.8809 14.9512-12.8809C14.4336-12.8809 14.0625-12.5 14.0625-11.9531L14.0625-7.94922L10.0586-7.94922C9.50195-7.94922 9.13086-7.56836 9.13086-7.03125C9.13086-6.51367 9.51172-6.14258 10.0586-6.14258Z"/>
  </g>
  <text style="stroke:none;fill:black;font-family:-apple-system,&quot;SF Pro Display&quot;,&quot;SF Pro Text&quot;,Helvetica,sans-serif;font-weight:bold;" transform="matrix(1 0 0 1 263 1953)">Design Variations</text>
  <text style="stroke:none;fill:black;font-family:-apple-system,&quot;SF Pro Display&quot;,&quot;SF Pro Text&quot;,Helvetica,sans-serif;" transform="matrix(1 0 0 1 263 1971)">Symbols are supported in up to nine weights and three scales.</text>
  <text style="stroke:none;fill:black;font-family:-apple-system,&quot;SF Pro Display&quot;,&quot;SF Pro Text&quot;,Helvetica,sans-serif;" transform="matrix(1 0 0 1 263 1989)">For optimal layout with text and other symbols, vertically align</text>
  <text style="stroke:none;fill:black;font-family:-apple-system,&quot;SF Pro Display&quot;,&quot;SF Pro Text&quot;,Helvetica,sans-serif;" transform="matrix(1 0 0 1 263 2007)">symbols with the adjacent text.</text>
  <line id="" style="fill:none;stroke:#00AEEF;stroke-width:0.5;opacity:1.0;" x1="776" x2="776" y1="1919" y2="1933"/>
  <g id="" transform="matrix(1 0 0 1 776 1933)">
   <path d="M3.31055 0.126953C3.82812 0.126953 4.08203-0.0683594 4.26758-0.605469L5.52734-4.0625L11.2891-4.0625L12.5488-0.605469C12.7344-0.0683594 12.9883 0.126953 13.4961 0.126953C14.0137 0.126953 14.3457-0.185547 14.3457-0.673828C14.3457-0.839844 14.3164-0.986328 14.2383-1.20117L9.6582-13.3887C9.43359-13.9941 9.0332-14.2871 8.4082-14.2871C7.80273-14.2871 7.39258-13.9941 7.17773-13.3984L2.59766-1.19141C2.51953-0.976562 2.49023-0.830078 2.49023-0.664062C2.49023-0.175781 2.80273 0.126953 3.31055 0.126953ZM6.00586-5.53711L8.37891-12.1094L8.42773-12.1094L10.8008-5.53711Z"/>
  </g>
  <line id="" style="fill:none;stroke:#00AEEF;stroke-width:0.5;opacity:1.0;" x1="792.836" x2="792.836" y1="1919" y2="1933"/>
  <text style="stroke:none;fill:black;font-family:-apple-system,&quot;SF Pro Display&quot;,&quot;SF Pro Text&quot;,Helvetica,sans-serif;font-weight:bold;" transform="matrix(1 0 0 1 776 1953)">Margins</text>
  <text style="stroke:none;fill:black;font-family:-apple-system,&quot;SF Pro Display&quot;,&quot;SF Pro Text&quot;,Helvetica,sans-serif;" transform="matrix(1 0 0 1 776 1971)">Leading and trailing margins on the left and right side of each symbol</text>
  <text style="stroke:none;fill:black;font-family:-apple-system,&quot;SF Pro Display&quot;,&quot;SF Pro Text&quot;,Helvetica,sans-serif;" transform="matrix(1 0 0 1 776 1989)">can be adjusted by modifying the x-location of the margin guidelines.</text>
  <text style="stroke:none;fill:black;font-family:-apple-system,&quot;SF Pro Display&quot;,&quot;SF Pro Text&quot;,Helvetica,sans-serif;" transform="matrix(1 0 0 1 776 2007)">Modifications are automatically applied proportionally to all</text>
  <text style="stroke:none;fill:black;font-family:-apple-system,&quot;SF Pro Display&quot;,&quot;SF Pro Text&quot;,Helvetica,sans-serif;" transform="matrix(1 0 0 1 776 2025)">scales and weights.</text>
  <g id="" transform="matrix(1 0 0 1 1289 1933)">
   <path d="M2.8418 1.86523L4.54102 3.57422C5.40039 4.44336 6.38672 4.38477 7.31445 3.35938L17.4902-7.85156C17.7539-7.76367 18.0273-7.7832 18.3398-7.8418L19.4043-8.03711L20.0684-7.36328L20.0293-6.80664C19.9902-6.30859 20.1172-5.92773 20.6055-5.44922L21.3672-4.70703C21.8457-4.22852 22.4609-4.19922 22.9297-4.66797L25.8398-7.58789C26.3086-8.05664 26.2891-8.65234 25.8105-9.13086L25.0391-9.89258C24.5605-10.3711 24.1895-10.5273 23.7109-10.4883L23.1348-10.4395L22.4902-11.0742L22.7344-12.1973C22.8613-12.7637 22.7051-13.2031 22.1191-13.7891L19.9219-15.9766C16.582-19.2969 12.1484-19.2188 9.25781-16.3281C8.83789-15.918 8.80859-15.3418 9.04297-14.9512C9.27734-14.5898 9.73633-14.3555 10.3809-14.5215C11.8457-14.8633 13.3691-14.9219 14.7949-13.9844L14.209-12.5293C14.0137-12.0508 13.9844-11.6504 14.1113-11.2891L3.04688-0.898438C2.06055 0.0195312 1.98242 0.996094 2.8418 1.86523ZM10.752-15.957C13.1836-17.7344 16.4746-17.4316 18.7012-15.2051L21.1328-12.793C21.3672-12.5586 21.4062-12.373 21.3379-12.0312L21.0156-10.5469L22.5195-9.0625L23.5059-9.12109C23.7598-9.13086 23.8379-9.11133 24.0332-8.91602L24.6094-8.33984L22.168-5.89844L21.5918-6.47461C21.3965-6.66992 21.3672-6.74805 21.377-7.01172L21.4453-7.98828L19.9512-9.47266L18.4277-9.21875C18.1055-9.15039 17.959-9.17969 17.7148-9.41406L15.7129-11.416C15.459-11.6504 15.4297-11.8164 15.5859-12.1875L16.4648-14.2773C14.9023-15.7324 12.8711-16.3574 10.8398-15.7617C10.6836-15.7227 10.625-15.8496 10.752-15.957ZM5.27344 2.30469L4.10156 1.14258C3.63281 0.683594 3.74023 0.341797 4.14062-0.0195312L14.9512-10.1953L16.416-8.71094L6.42578 2.27539C6.07422 2.67578 5.74219 2.77344 5.27344 2.30469Z"/>
  </g>
  <text style="stroke:none;fill:black;font-family:-apple-system,&quot;SF Pro Display&quot;,&quot;SF Pro Text&quot;,Helvetica,sans-serif;font-weight:bold;" transform="matrix(1 0 0 1 1289 1953)">Exporting</text>
  <text style="stroke:none;fill:black;font-family:-apple-system,&quot;SF Pro Display&quot;,&quot;SF Pro Text&quot;,Helvetica,sans-serif;" transform="matrix(1 0 0 1 1289 1971)">Symbols should be outlined when exporting to ensure the</text>
  <text style="stroke:none;fill:black;font-family:-apple-system,&quot;SF Pro Display&quot;,&quot;SF Pro Text&quot;,Helvetica,sans-serif;" transform="matrix(1 0 0 1 1289 1989)">design is preserved when submitting to Xcode.</text>
  <text id="template-version" style="stroke:none;fill:black;font-family:-apple-system,&quot;SF Pro Display&quot;,&quot;SF Pro Text&quot;,Helvetica,sans-serif;text-anchor:end;" transform="matrix(1 0 0 1 3036 1933)">Template v.2.0</text>
  <text style="stroke:none;fill:black;font-family:-apple-system,&quot;SF Pro Display&quot;,&quot;SF Pro Text&quot;,Helvetica,sans-serif;text-anchor:end;" transform="matrix(1 0 0 1 3036 1951)">Requires Xcode 12 or greater</text>
  <text style="stroke:none;fill:black;font-family:-apple-system,&quot;SF Pro Display&quot;,&quot;SF Pro Text&quot;,Helvetica,sans-serif;text-anchor:end;" transform="matrix(1 0 0 1 3036 1969)">Generated from phone.fill</text>
  <text style="stroke:none;fill:black;font-family:-apple-system,&quot;SF Pro Display&quot;,&quot;SF Pro Text&quot;,Helvetica,sans-serif;text-anchor:end;" transform="matrix(1 0 0 1 3036 1987)">Typeset at 100 points</text>
  <text style="stroke:none;fill:black;font-family:-apple-system,&quot;SF Pro Display&quot;,&quot;SF Pro Text&quot;,Helvetica,sans-serif;" transform="matrix(1 0 0 1 263 726)">Small</text>
  <text style="stroke:none;fill:black;font-family:-apple-system,&quot;SF Pro Display&quot;,&quot;SF Pro Text&quot;,Helvetica,sans-serif;" transform="matrix(1 0 0 1 263 1156)">Medium</text>
  <text style="stroke:none;fill:black;font-family:-apple-system,&quot;SF Pro Display&quot;,&quot;SF Pro Text&quot;,Helvetica,sans-serif;" transform="matrix(1 0 0 1 263 1586)">Large</text>
 </g>
 <g id="Guides">
  <g id="H-reference" style="fill:#27AAE1;stroke:none;" transform="matrix(1 0 0 1 339 696)">
   <path d="M0.976562 0L3.66211 0L12.9883-24.4629L45.752-24.4629L55.127 0L57.7637 0L30.6152-70.459L28.125-70.459ZM29.3457-67.1387L29.4434-67.1387L44.873-26.709L13.8672-26.709Z"/>
  </g>
  <line id="Baseline-S" style="fill:none;stroke:#27AAE1;opacity:1;stroke-width:0.5;" x1="263" x2="3036" y1="696" y2="696"/>
  <line id="Capline-S" style="fill:none;stroke:#27AAE1;opacity:1;stroke-width:0.5;" x1="263" x2="3036" y1="625.541" y2="625.541"/>
  <g id="H-reference" style="fill:#27AAE1;stroke:none;" transform="matrix(1 0 0 1 339 1126)">
   <path d="M0.976562 0L3.66211 0L12.9883-24.4629L45.752-24.4629L55.127 0L57.7637 0L30.6152-70.459L28.125-70.459ZM29.3457-67.1387L29.4434-67.1387L44.873-26.709L13.8672-26.709Z"/>
  </g>
  <line id="Baseline-M" style="fill:none;stroke:#27AAE1;opacity:1;stroke-width:0.5;" x1="263" x2="3036" y1="1126" y2="1126"/>
  <line id="Capline-M" style="fill:none;stroke:#27AAE1;opacity:1;stroke-width:0.5;" x1="263" x2="3036" y1="1055.54" y2="1055.54"/>
  <g id="H-reference" style="fill:#27AAE1;stroke:none;" transform="matrix(1 0 0 1 339 1556)">
   <path d="M0.976562 0L3.66211 0L12.9883-24.4629L45.752-24.4629L55.127 0L57.7637 0L30.6152-70.459L28.125-70.459ZM29.3457-67.1387L29.4434-67.1387L44.873-26.709L13.8672-26.709Z"/>
  </g>
  <line id="Baseline-L" style="fill:none;stroke:#27AAE1;opacity:1;stroke-width:0.5;" x1="263" x2="3036" y1="1556" y2="1556"/>
  <line id="Capline-L" style="fill:none;stroke:#27AAE1;opacity:1;stroke-width:0.5;" x1="263" x2="3036" y1="1485.54" y2="1485.54"/>
  <line id="left-margin" style="fill:none;stroke:#00AEEF;stroke-width:0.5;opacity:1.0;" x1="1393.35" x2="1393.35" y1="1030.79" y2="1150.12"/>
  <line id="right-margin" style="fill:none;stroke:#00AEEF;stroke-width:0.5;opacity:1.0;" x1="1506.34" x2="1506.34" y1="1030.79" y2="1150.12"/>
 </g>
 <g id="Symbols">
  <g id="Black-L" transform="matrix(1 0 0 1 2855.71 1556)">
   <path d="M49.6582-4.98047C69.6777 15.0879 93.6523 30.3223 113.086 30.3223C121.729 30.3223 129.395 27.3438 135.498 20.5078C139.062 16.5039 140.918 12.1582 140.918 7.66602C140.918 3.61328 139.307-0.292969 135.498-3.02734L115.967-16.9434C112.549-19.3848 109.814-20.459 107.373-20.459C104.199-20.459 101.465-18.6035 98.3887-15.5762L93.6523-10.791C92.9199-10.0586 91.9434-9.76562 91.1133-9.76562C90.0391-9.76562 88.9648-10.1562 88.2812-10.5957C84.082-12.9883 76.9531-19.2383 70.459-25.7324C63.9648-32.2266 57.7148-39.3555 55.3223-43.5547C54.8828-44.2871 54.4922-45.3613 54.4922-46.3867C54.4922-47.2656 54.7852-48.1934 55.4688-48.9258L60.2539-53.7109C63.3301-56.7383 65.1367-59.4727 65.1367-62.6953C65.1367-65.0879 64.1113-67.8711 61.6699-71.2402L47.7051-90.8203C45.0195-94.5801 41.0645-96.1914 36.9629-96.1914C32.4219-96.1914 28.0762-94.3848 24.2188-90.7715C17.4316-84.6191 14.4531-76.9043 14.4531-68.3105C14.4531-48.8281 29.6387-25 49.6582-4.98047Z"/>
  </g>
  <g id="Heavy-L" transform="matrix(1 0 0 1 2560.25 1556)">
   <path d="M48.7793-5.51758C68.2617 14.0137 91.748 28.9551 110.889 28.9551C119.385 28.9551 126.953 26.0254 132.959 19.2871C136.475 15.4297 138.428 11.084 138.428 6.64062C138.428 2.7832 136.914-0.878906 133.301-3.4668L113.818-17.334C110.547-19.6289 107.91-20.6543 105.518-20.6543C102.393-20.6543 99.707-18.8965 96.6797-15.918L91.9434-11.2305C91.2598-10.498 90.332-10.2051 89.4531-10.2051C88.4766-10.2051 87.4023-10.5957 86.7188-10.9863C82.6172-13.2812 75.5859-19.3848 69.1406-25.8301C62.6953-32.2754 56.5918-39.3066 54.2969-43.4082C53.9062-44.1406 53.5156-45.166 53.5156-46.1426C53.5156-46.9727 53.8086-47.9004 54.541-48.6328L59.2285-53.3691C62.207-56.3965 63.9648-59.082 63.9648-62.207C63.9648-64.5996 62.9395-67.2852 60.6445-70.5078L46.8262-89.8926C44.2383-93.5059 40.4785-95.0684 36.5723-95.0684C32.1289-95.0684 27.7832-93.2129 23.9746-89.6484C17.334-83.5449 14.4531-75.9277 14.4531-67.4805C14.4531-48.3398 29.248-25 48.7793-5.51758Z"/>
  </g>
  <g id="Bold-L" transform="matrix(1 0 0 1 2264.93 1556)">
   <path d="M47.8027-6.10352C66.6992 12.8418 89.6484 27.4414 108.398 27.4414C116.846 27.4414 124.219 24.5117 130.127 17.9688C133.545 14.209 135.645 9.81445 135.645 5.46875C135.645 1.9043 134.229-1.51367 130.811-3.95508L111.377-17.7246C108.35-19.9219 105.762-20.9473 103.418-20.9473C100.439-20.9473 97.7539-19.2383 94.7754-16.3086L90.0879-11.6699C89.4043-10.9863 88.5254-10.6934 87.6465-10.6934C86.6699-10.6934 85.6934-11.0352 85.0098-11.4258C81.0059-13.623 74.0723-19.5312 67.6758-25.9277C61.2793-32.3242 55.3711-39.2578 53.1738-43.2617C52.7832-43.9453 52.4414-44.9219 52.4414-45.8496C52.4414-46.6797 52.7344-47.5586 53.418-48.291L58.0566-53.0273C60.9863-56.0059 62.6465-58.6914 62.6465-61.7188C62.6465-64.0137 61.6699-66.6016 59.4727-69.6777L45.8008-88.8672C43.3594-92.334 39.8438-93.7988 36.084-93.7988C31.7871-93.7988 27.4902-91.9434 23.6816-88.3301C17.2852-82.3242 14.4531-74.8535 14.4531-66.5527C14.4531-47.7539 28.8574-24.9512 47.8027-6.10352Z"/>
  </g>
  <g id="Semibold-L" transform="matrix(1 0 0 1 1969.19 1556)">
   <path d="M47.1191-6.49414C65.625 12.0117 88.2324 26.3672 106.689 26.3672C115.039 26.3672 122.314 23.4863 128.174 17.041C131.543 13.3301 133.691 8.98438 133.691 4.63867C133.691 1.26953 132.373-1.95312 129.102-4.29688L109.717-18.0176C106.787-20.1172 104.297-21.0938 102.002-21.0938C99.0723-21.0938 96.3867-19.4824 93.457-16.5527L88.8184-12.0117C88.1348-11.2793 87.2559-11.0352 86.377-11.0352C85.4492-11.0352 84.5215-11.377 83.8379-11.7188C79.8828-13.8672 73.0469-19.5801 66.6504-25.9766C60.2539-32.373 54.4922-39.209 52.3926-43.1641C52.0508-43.8477 51.709-44.7754 51.709-45.7031C51.709-46.4844 51.9531-47.3633 52.6855-48.0469L57.2266-52.7344C60.1074-55.7617 61.7676-58.3984 61.7676-61.3281C61.7676-63.6719 60.7422-66.1621 58.6426-69.0918L45.1172-88.1836C42.7734-91.5039 39.3555-92.9199 35.791-92.9199C31.543-92.9199 27.2461-91.0156 23.5352-87.4512C17.2363-81.4453 14.4531-74.0723 14.4531-65.918C14.4531-47.3633 28.6133-24.9512 47.1191-6.49414Z"/>
  </g>
  <g id="Medium-L" transform="matrix(1 0 0 1 1673.22 1556)">
   <path d="M46.582-6.78711C64.7949 11.4258 87.1094 25.5371 105.42 25.5371C113.672 25.5371 120.898 22.7051 126.709 16.3086C130.029 12.6953 132.227 8.34961 132.227 4.05273C132.227 0.830078 131.006-2.29492 127.832-4.54102L108.496-18.2617C105.615-20.2637 103.174-21.2402 100.879-21.2402C97.998-21.2402 95.3613-19.6289 92.4316-16.748L87.8418-12.2559C87.1582-11.5723 86.2793-11.2793 85.4492-11.2793C84.5215-11.2793 83.5938-11.6211 82.9102-11.9629C79.0527-14.0137 72.2656-19.6777 65.8691-26.0254C59.5215-32.373 53.8574-39.1602 51.8066-43.0664C51.4648-43.75 51.1719-44.6289 51.1719-45.5566C51.1719-46.3379 51.416-47.168 52.0996-47.8516L56.6406-52.5391C59.4727-55.5664 61.084-58.2031 61.084-61.084C61.084-63.3301 60.0586-65.8203 58.0566-68.6523L44.6289-87.6465C42.2852-90.8691 39.0137-92.2363 35.5469-92.2363C31.3477-92.2363 27.0996-90.332 23.3887-86.7676C17.1875-80.8105 14.4531-73.4863 14.4531-65.4297C14.4531-47.0703 28.418-24.9512 46.582-6.78711Z"/>
  </g>
  <g id="Regular-L" transform="matrix(1 0 0 1 1377.46 1556)">
   <path d="M45.9473-7.17773C63.7207 10.5957 85.6934 24.5117 103.76 24.5117C111.914 24.5117 119.043 21.6797 124.805 15.4297C128.027 11.8652 130.322 7.51953 130.322 3.22266C130.322 0.195312 129.15-2.7832 126.123-4.88281L106.836-18.5059C104.102-20.459 101.709-21.4355 99.4629-21.4355C96.6797-21.4355 94.043-19.873 91.1133-17.041L86.5723-12.5488C85.8887-11.8652 85.0586-11.6211 84.1797-11.6211C83.3008-11.6211 82.4219-11.9629 81.7383-12.2559C77.9785-14.2578 71.1914-19.7754 64.8926-26.123C58.5449-32.4219 52.9785-39.1113 51.0742-42.9688C50.7324-43.6523 50.4395-44.4824 50.4395-45.3613C50.4395-46.1426 50.6836-46.9238 51.3672-47.6562L55.8105-52.2949C58.6426-55.2734 60.2051-57.9102 60.2051-60.6934C60.2051-62.9883 59.1797-65.332 57.2754-68.1152L43.9453-86.9141C41.6992-90.0391 38.5742-91.3574 35.2051-91.3574C31.1523-91.3574 26.9043-89.4531 23.1934-85.8887C17.1387-79.9805 14.4531-72.7539 14.4531-64.7949C14.4531-46.6797 28.125-24.9512 45.9473-7.17773Z"/>
  </g>
  <g id="Light-L" transform="matrix(1 0 0 1 1081.38 1556)">
   <path d="M45.2148-7.8125C62.4023 9.42383 84.1309 23.0957 102.148 23.0957C110.449 23.0957 117.529 20.2148 123.34 14.0625C126.465 10.791 129.053 6.39648 129.053 2.14844C129.053-0.78125 127.881-3.61328 124.805-5.76172L105.566-19.2871C103.174-20.9961 100.879-21.9238 98.6328-21.9238C95.8984-21.9238 93.2129-20.5078 90.2344-17.6758L85.6445-13.1836C84.9609-12.5 84.1309-12.207 83.252-12.207C82.4219-12.207 81.5918-12.5 80.9082-12.8418C77.2949-14.6973 70.459-19.9707 63.916-26.5137C57.4219-32.959 52.0996-39.6973 50.293-43.5059C50-44.1895 49.707-44.9707 49.707-45.7031C49.707-46.4355 49.9512-47.2168 50.6348-47.9004L55.127-52.7344C57.9102-55.8105 59.375-58.4961 59.375-61.2305C59.375-63.4766 58.3984-65.7227 56.6406-68.2129L43.6035-86.7188C41.3574-89.8926 38.2324-91.2598 34.9609-91.2598C30.957-91.2598 26.7578-89.3066 23.0957-85.6934C17.0898-79.834 14.4531-72.5586 14.4531-64.6484C14.4531-46.582 27.9297-25 45.2148-7.8125Z"/>
  </g>
  <g id="Thin-L" transform="matrix(1 0 0 1 785.524 1556)">
   <path d="M44.2871-8.59375C60.7422 7.86133 82.0801 21.1914 100.098 21.1914C108.496 21.1914 115.527 18.3105 121.436 12.3047C124.365 9.32617 127.344 4.93164 127.344 0.683594C127.344-2.05078 126.221-4.73633 123.096-6.88477L103.906-20.2637C101.904-21.7285 99.7559-22.6074 97.5098-22.6074C94.873-22.6074 92.0898-21.3867 89.0625-18.5059L84.375-13.9648C83.6914-13.3301 82.9102-13.0371 82.0312-13.0371C81.25-13.0371 80.5176-13.2812 79.7852-13.5742C76.3672-15.332 69.4336-20.2637 62.6465-27.002C55.957-33.6914 50.8789-40.5273 49.3164-44.1895C48.9746-44.873 48.7793-45.5566 48.7793-46.1426C48.7793-46.875 49.0234-47.6074 49.707-48.291L54.1992-53.2715C56.9824-56.4941 58.252-59.2773 58.252-61.8652C58.252-64.1113 57.373-66.2598 55.8594-68.3594L43.2129-86.4258C40.8691-89.6973 37.793-91.1133 34.5703-91.1133C30.7617-91.1133 26.6113-89.1113 22.9492-85.4492C17.041-79.541 14.4531-72.3145 14.4531-64.4531C14.4531-46.4844 27.6855-25.0977 44.2871-8.59375Z"/>
  </g>
  <g id="Ultralight-L" transform="matrix(1 0 0 1 489.252 1556)">
   <path d="M43.7988-9.0332C59.8633 7.03125 81.0059 20.2148 99.0234 20.2148C107.52 20.2148 114.502 17.334 120.459 11.4258C123.291 8.59375 126.465 4.19922 126.465-0.0976562C126.465-2.68555 125.342-5.32227 122.168-7.4707L103.076-20.8008C101.221-22.1191 99.1699-22.998 96.9238-22.998C94.3848-22.998 91.5527-21.8262 88.4766-18.8965L83.6914-14.4043C83.0566-13.7695 82.2754-13.4277 81.3965-13.4277C80.6641-13.4277 79.9805-13.6719 79.248-13.9648C75.9277-15.625 68.8965-20.3613 62.0117-27.2949C55.1758-34.082 50.2441-40.918 48.7793-44.5312C48.4863-45.2637 48.3398-45.8984 48.3398-46.3867C48.3398-47.1191 48.584-47.8516 49.2188-48.4863L53.7109-53.5645C56.543-56.8359 57.666-59.668 57.666-62.207C57.666-64.4531 56.8359-66.5039 55.4199-68.457L42.9688-86.2793C40.625-89.5996 37.5977-91.0645 34.375-91.0645C30.6641-91.0645 26.5625-89.0137 22.8516-85.3027C16.9922-79.4434 14.4531-72.2168 14.4531-64.3555C14.4531-46.4355 27.5879-25.1465 43.7988-9.0332Z"/>
  </g>
  <g id="Black-M" transform="matrix(1 0 0 1 2871.83 1126)">
   <path d="M39.3555-11.4258C55.2734 4.58984 74.3164 16.6992 89.7949 16.6992C96.6797 16.6992 102.783 14.3066 107.666 8.88672C110.498 5.76172 111.914 2.39258 111.914-1.17188C111.914-4.54102 110.547-7.8125 107.324-10.1562L92.1387-20.9961C89.4531-22.9004 87.2559-23.7305 85.3027-23.7305C82.7637-23.7305 80.5664-22.3145 78.125-19.873L74.3164-16.0645C73.7793-15.4785 72.998-15.2344 72.3145-15.2344C71.5332-15.2344 70.6543-15.5273 70.0684-15.918C66.748-17.8711 61.084-22.8027 55.9082-27.9785C50.7324-33.1543 45.8008-38.8672 43.8477-42.1387C43.457-42.7246 43.1641-43.6035 43.1641-44.3848C43.1641-45.0684 43.4082-45.8496 43.9453-46.3867L47.7539-50.1953C50.1953-52.6367 51.6602-54.834 51.6602-57.373C51.6602-59.3262 50.8301-61.5234 48.877-64.209L38.0371-79.3945C35.791-82.6172 32.4707-83.9355 29.1016-83.9355C25.4883-83.9355 22.1191-82.5684 19.043-79.7363C13.623-74.9023 11.2305-68.75 11.2305-61.9141C11.2305-46.3867 23.3398-27.3438 39.3555-11.4258Z"/>
  </g>
  <g id="Heavy-M" transform="matrix(1 0 0 1 2576.31 1126)">
   <path d="M38.5742-11.8164C54.0527 3.71094 72.6562 15.5273 87.793 15.5273C94.5312 15.5273 100.537 13.2324 105.273 7.91016C108.057 4.83398 109.521 1.46484 109.521-2.00195C109.521-5.17578 108.252-8.25195 105.273-10.4004L90.0879-21.1914C87.5-23.0469 85.4004-23.8281 83.4961-23.8281C81.0059-23.8281 78.8574-22.4609 76.4648-20.0684L72.7539-16.3574C72.2168-15.7715 71.4844-15.5273 70.8008-15.5273C69.9707-15.5273 69.1406-15.8691 68.6035-16.2109C65.3809-18.0664 59.8145-22.8516 54.6875-27.9785C49.6094-33.0566 44.7754-38.623 42.9199-41.8457C42.5781-42.4316 42.2852-43.2617 42.2852-44.043C42.2852-44.7266 42.5293-45.459 43.0664-45.9961L46.8262-49.7559C49.1699-52.1484 50.5859-54.2969 50.5859-56.7383C50.5859-58.6426 49.8047-60.791 47.9004-63.3789L37.1582-78.4668C35.0098-81.4941 31.9336-82.7148 28.7109-82.7148C25.1953-82.7148 21.8262-81.3477 18.7988-78.5156C13.5254-73.7305 11.2305-67.7246 11.2305-61.0352C11.2305-45.8984 22.998-27.2949 38.5742-11.8164Z"/>
  </g>
  <g id="Bold-M" transform="matrix(1 0 0 1 2280.94 1126)">
   <path d="M37.6953-12.3047C52.6855 2.7832 70.8008 14.2578 85.5469 14.2578C92.1387 14.2578 97.9492 12.0117 102.637 6.83594C105.322 3.80859 106.836 0.439453 106.836-2.97852C106.836-5.9082 105.713-8.69141 102.93-10.6934L87.8418-21.4355C85.3516-23.1934 83.3008-23.9746 81.4453-23.9746C79.0527-23.9746 76.9531-22.6074 74.6582-20.3125L70.9961-16.6992C70.459-16.1133 69.7266-15.918 69.0918-15.918C68.3105-15.918 67.4805-16.2109 66.9434-16.5039C63.8184-18.2617 58.3496-22.9492 53.3691-27.9785C48.3887-32.959 43.7012-38.3789 41.9434-41.5527C41.6016-42.0898 41.3086-42.8711 41.3086-43.6523C41.3086-44.2871 41.5527-44.9707 42.0898-45.5566L45.752-49.2188C48.0469-51.5625 49.4141-53.6621 49.4141-56.0547C49.4141-57.9102 48.584-59.9609 46.8262-62.4023L36.1328-77.4414C34.1797-80.1758 31.2988-81.3477 28.2715-81.3477C24.8535-81.3477 21.5332-79.9316 18.5547-77.1484C13.4766-72.4609 11.2305-66.6016 11.2305-60.0586C11.2305-45.2637 22.6562-27.2949 37.6953-12.3047Z"/>
  </g>
  <g id="Semibold-M" transform="matrix(1 0 0 1 1985.16 1126)">
   <path d="M37.0605-12.5977C51.7578 2.09961 69.5312 13.4277 84.0332 13.4277C90.4785 13.4277 96.1914 11.1328 100.781 6.10352C103.418 3.125 104.98-0.244141 104.98-3.61328C104.98-6.39648 103.955-9.0332 101.318-10.8887L86.2793-21.582C83.8867-23.291 81.8848-24.0723 80.0781-24.0723C77.7344-24.0723 75.6836-22.7539 73.3887-20.459L69.7754-16.8945C69.2383-16.3574 68.5547-16.1621 67.8711-16.1621C67.1387-16.1621 66.3574-16.4551 65.8203-16.748C62.7441-18.457 57.373-23.0469 52.4414-27.9297C47.5586-32.8613 42.9199-38.1836 41.2598-41.3086C40.9668-41.8457 40.6738-42.627 40.6738-43.3594C40.6738-43.9941 40.8691-44.6777 41.4062-45.2148L44.9707-48.877C47.2656-51.1719 48.584-53.2227 48.584-55.5664C48.584-57.373 47.8027-59.375 46.0938-61.7676L35.4492-76.709C33.5938-79.2969 30.8594-80.4199 27.9785-80.4199C24.6582-80.4199 21.2891-79.0039 18.3594-76.2207C13.4277-71.582 11.2305-65.8203 11.2305-59.375C11.2305-44.873 22.4121-27.2461 37.0605-12.5977Z"/>
  </g>
  <g id="Medium-M" transform="matrix(1 0 0 1 1689.13 1126)">
   <path d="M36.6211-12.8418C51.0254 1.61133 68.5547 12.7441 82.8613 12.7441C89.2578 12.7441 94.873 10.498 99.3652 5.51758C102.002 2.58789 103.613-0.78125 103.613-4.15039C103.613-6.73828 102.588-9.27734 100.098-11.0352L85.1074-21.6797C82.7148-23.3398 80.7617-24.1211 79.0039-24.1211C76.709-24.1211 74.6582-22.8516 72.4121-20.6055L68.8965-17.0898C68.3105-16.5527 67.627-16.3086 66.9922-16.3086C66.2109-16.3086 65.4785-16.6016 64.9902-16.8945C61.9141-18.5547 56.6406-23.0469 51.7578-27.9297C46.875-32.8125 42.334-38.0371 40.7227-41.1621C40.4297-41.6992 40.1855-42.3828 40.1855-43.1641C40.1855-43.75 40.3809-44.4336 40.918-45.0195L44.4336-48.584C46.6309-50.8789 47.9492-52.8809 47.9492-55.1758C47.9492-56.9824 47.168-58.9355 45.5078-61.2793L34.9121-76.123C33.1055-78.6621 30.5664-79.7363 27.7832-79.7363C24.4629-79.7363 21.1426-78.2715 18.2617-75.4883C13.3789-70.8984 11.2305-65.1855 11.2305-58.8867C11.2305-44.5801 22.2168-27.2461 36.6211-12.8418Z"/>
  </g>
  <g id="Regular-M" transform="matrix(1 0 0 1 1393.35 1126)">
   <path d="M36.0352-13.1348C50.1465 0.976562 67.2852 11.8652 81.2988 11.8652C87.5977 11.8652 93.1152 9.66797 97.5586 4.78516C100.146 1.9043 101.758-1.46484 101.758-4.78516C101.758-7.22656 100.83-9.57031 98.5352-11.2305L83.5449-21.875C81.25-23.4375 79.3457-24.2188 77.5879-24.2188C75.3906-24.2188 73.3887-22.9492 71.1426-20.752L67.6758-17.334C67.1387-16.7969 66.4551-16.5527 65.8203-16.5527C65.0879-16.5527 64.3555-16.8457 63.8672-17.0898C60.8398-18.7012 55.6641-23.1445 50.8301-27.9297C46.0449-32.7148 41.6016-37.8906 40.0391-40.918C39.7949-41.4551 39.502-42.1387 39.502-42.8711C39.502-43.5059 39.6973-44.1406 40.2344-44.6777L43.7012-48.2422C45.8496-50.4883 47.168-52.4414 47.168-54.6875C47.168-56.4453 46.3379-58.3496 44.7266-60.6445L34.2285-75.4395C32.5195-77.7832 30.127-78.8086 27.4902-78.8086C24.2676-78.8086 20.9473-77.3438 18.0664-74.5605C13.3301-70.0195 11.2305-64.4043 11.2305-58.2031C11.2305-44.1895 21.9238-27.1973 36.0352-13.1348Z"/>
  </g>
  <g id="Light-M" transform="matrix(1 0 0 1 1097.2 1126)">
   <path d="M35.4004-13.6719C48.9746-0.0976562 65.918 10.5957 79.9316 10.5957C86.2793 10.5957 91.7969 8.39844 96.2402 3.56445C98.7305 0.927734 100.635-2.49023 100.635-5.76172C100.635-8.10547 99.707-10.3516 97.3633-12.0117L82.4219-22.5098C80.4199-23.9258 78.6133-24.707 76.8555-24.707C74.707-24.707 72.6562-23.5352 70.3613-21.3379L66.7969-17.8711C66.3086-17.334 65.625-17.1387 64.9902-17.1387C64.3066-17.1387 63.623-17.3828 63.0859-17.627C60.2051-19.1406 54.9805-23.291 50-28.2715C45.0684-33.252 40.7715-38.4277 39.3555-41.4062C39.1113-41.9434 38.8672-42.5781 38.8672-43.1641C38.8672-43.7988 39.0625-44.3848 39.5996-44.9219L43.0664-48.584C45.2148-50.9277 46.3867-52.9785 46.3867-55.127C46.3867-56.8848 45.6543-58.6914 44.1895-60.7422L33.9844-75.2441C32.2266-77.6367 29.834-78.7109 27.2461-78.7109C24.1211-78.7109 20.8496-77.1973 17.9688-74.4141C13.2812-69.873 11.2305-64.2578 11.2305-58.0566C11.2305-44.0918 21.7773-27.2949 35.4004-13.6719Z"/>
  </g>
  <g id="Thin-M" transform="matrix(1 0 0 1 801.271 1126)">
   <path d="M34.5703-14.4043C47.4609-1.51367 64.0625 8.88672 78.0273 8.88672C84.5215 8.88672 89.9902 6.68945 94.5312 2.00195C96.875-0.390625 99.0723-3.80859 99.0723-7.08008C99.0723-9.22852 98.1934-11.3281 95.8008-13.0371L80.9082-23.4375C79.248-24.6094 77.5879-25.293 75.8301-25.293C73.7793-25.293 71.6309-24.3164 69.3359-22.0703L65.6738-18.6035C65.1855-18.0664 64.5508-17.8223 63.8672-17.8223C63.2812-17.8223 62.6465-18.0664 62.1094-18.3105C59.4238-19.6777 54.0527-23.5352 48.8281-28.7598C43.7012-33.8867 39.6973-39.1602 38.4766-41.9922C38.1836-42.5781 38.0371-43.1152 38.0371-43.6035C38.0371-44.1895 38.2324-44.7754 38.7207-45.2637L42.2363-49.1211C44.3848-51.5625 45.4102-53.7109 45.4102-55.7129C45.4102-57.4707 44.7266-59.1797 43.457-60.8887L33.5938-74.9512C31.7871-77.4902 29.4434-78.5645 26.9043-78.5645C23.9258-78.5645 20.7031-77.0508 17.8223-74.1699C13.2324-69.6289 11.2305-64.0137 11.2305-57.9102C11.2305-43.9941 21.5332-27.3438 34.5703-14.4043Z"/>
  </g>
  <g id="Ultralight-M" transform="matrix(1 0 0 1 504.95 1126)">
   <path d="M34.1309-14.7949C46.6797-2.24609 63.1348 8.05664 77.0996 8.05664C83.6426 8.05664 89.0625 5.81055 93.6523 1.17188C95.8984-1.02539 98.291-4.44336 98.291-7.76367C98.291-9.81445 97.4121-11.8652 94.9707-13.5742L80.1758-23.877C78.6621-24.9512 77.0508-25.6348 75.3418-25.6348C73.3398-25.6348 71.1426-24.707 68.75-22.4609L65.0879-18.9453C64.5996-18.457 63.9648-18.2129 63.2812-18.2129C62.7441-18.2129 62.1582-18.4082 61.6211-18.6523C58.9844-19.9707 53.5645-23.6816 48.2422-29.0039C43.0176-34.2285 39.1602-39.5508 37.9883-42.334C37.7441-42.8711 37.5977-43.4082 37.5977-43.7988C37.5977-44.3848 37.793-44.9219 38.3301-45.4102L41.7969-49.3652C43.9941-51.8555 44.9219-54.0527 44.9219-56.0547C44.9219-57.7637 44.2383-59.375 43.1152-60.9375L33.3984-74.8047C31.5918-77.3926 29.248-78.5156 26.7578-78.5156C23.8281-78.5156 20.6543-76.9531 17.7734-74.0723C13.2324-69.5312 11.2305-63.916 11.2305-57.8125C11.2305-43.8965 21.4355-27.3926 34.1309-14.7949Z"/>
  </g>
  <g id="Black-S" transform="matrix(1 0 0 1 2885.26 696)">
   <path d="M30.7617-16.6016C43.2129-4.10156 58.1055 5.37109 70.2148 5.37109C75.5859 5.37109 80.3711 3.51562 84.1797-0.732422C86.377-3.17383 87.5-5.81055 87.5-8.59375C87.5-11.2305 86.4258-13.7695 83.9355-15.5762L72.0215-24.0723C69.9219-25.5859 68.2129-26.2207 66.6992-26.2207C64.6973-26.2207 62.9883-25.0977 61.084-23.1934L58.1055-20.2148C57.666-19.7754 57.0801-19.5801 56.543-19.5801C55.9082-19.5801 55.2246-19.8242 54.7852-20.1172C52.1973-21.6309 47.7539-25.4883 43.7012-29.541C39.6484-33.5938 35.791-38.0371 34.2773-40.625C33.9844-41.0645 33.7402-41.748 33.7402-42.3828C33.7402-42.9199 33.9355-43.5059 34.375-43.9453L37.3535-46.9238C39.2578-48.8281 40.3809-50.5371 40.3809-52.5391C40.3809-54.0527 39.7461-55.7617 38.2324-57.8613L29.7363-69.7754C27.9785-72.2656 25.3906-73.291 22.7539-73.291C19.9219-73.291 17.2852-72.2168 14.8926-70.0195C10.6445-66.2109 8.78906-61.4258 8.78906-56.0547C8.78906-43.9453 18.2617-29.0527 30.7617-16.6016Z"/>
  </g>
  <g id="Heavy-S" transform="matrix(1 0 0 1 2589.4 696)">
   <path d="M30.2246-16.8457C42.4316-4.63867 56.9824 4.63867 68.8477 4.63867C74.1211 4.63867 78.7598 2.83203 82.5195-1.31836C84.668-3.75977 85.791-6.39648 85.791-9.13086C85.791-11.6211 84.8145-14.0137 82.4707-15.6738L70.6055-24.1699C68.5547-25.6348 66.8945-26.2695 65.3809-26.2695C63.4277-26.2695 61.7676-25.1465 59.9121-23.291L56.9824-20.3613C56.543-19.9219 56.0059-19.7754 55.4688-19.7754C54.834-19.7754 54.1504-20.0195 53.7598-20.2637C51.1719-21.7285 46.875-25.5371 42.8711-29.4922C38.916-33.4473 35.1074-37.793 33.6426-40.332C33.3984-40.7715 33.1543-41.4551 33.1543-42.0898C33.1543-42.5781 33.3496-43.1641 33.7891-43.6035L36.6699-46.5332C38.5254-48.3887 39.6484-50.0488 39.6484-52.002C39.6484-53.4668 39.0137-55.1758 37.5488-57.2266L29.1016-69.0918C27.4414-71.3867 25-72.3633 22.5098-72.3633C19.7266-72.3633 17.0898-71.2891 14.7461-69.0918C10.5957-65.332 8.78906-60.6445 8.78906-55.4199C8.78906-43.5547 18.0176-29.0039 30.2246-16.8457Z"/>
  </g>
  <g id="Bold-S" transform="matrix(1 0 0 1 2293.64 696)">
   <path d="M29.6387-17.1387C41.5039-5.22461 55.7617 3.80859 67.2852 3.80859C72.4121 3.80859 77.002 2.05078 80.6152-2.00195C82.7637-4.44336 83.8867-7.08008 83.8867-9.76562C83.8867-12.0605 83.0078-14.2578 80.8594-15.8203L68.9941-24.2676C66.9922-25.6836 65.3809-26.3184 63.916-26.3184C62.0117-26.3184 60.4004-25.1953 58.5938-23.3887L55.7617-20.5566C55.3223-20.1172 54.7852-19.9707 54.248-19.9707C53.6133-19.9707 52.9785-20.2148 52.5879-20.459C50.0977-21.875 45.8496-25.5859 41.9922-29.4434C38.0859-33.3008 34.375-37.5488 32.959-40.0391C32.7148-40.4785 32.5195-41.1133 32.5195-41.748C32.5195-42.2363 32.666-42.7734 33.1055-43.2129L35.9375-46.0938C37.7441-47.9004 38.8184-49.5117 38.8184-51.416C38.8184-52.832 38.1836-54.4922 36.7676-56.4941L28.3691-68.3105C26.8066-70.459 24.5605-71.3379 22.2168-71.3379C19.4824-71.3379 16.8457-70.2637 14.5508-68.0664C10.5469-64.4043 8.78906-59.8145 8.78906-54.6875C8.78906-43.1152 17.7734-29.0039 29.6387-17.1387Z"/>
  </g>
  <g id="Semibold-S" transform="matrix(1 0 0 1 1997.59 696)">
   <path d="M29.248-17.334C40.918-5.66406 54.8828 3.27148 66.2598 3.27148C71.2891 3.27148 75.7812 1.51367 79.2969-2.49023C81.4453-4.88281 82.5684-7.51953 82.5684-10.1562C82.5684-12.3535 81.7383-14.4531 79.7363-15.8691L67.9199-24.3164C65.918-25.6836 64.3555-26.3184 62.9395-26.3184C61.084-26.3184 59.4727-25.2441 57.7148-23.4863L54.9316-20.7031C54.4922-20.2637 53.9062-20.1172 53.418-20.1172C52.7832-20.1172 52.1973-20.3613 51.7578-20.5566C49.3164-21.9238 45.166-25.5859 41.3574-29.3945C37.5488-33.2031 33.8867-37.3535 32.5195-39.8438C32.2754-40.2344 32.0312-40.8691 32.0312-41.5039C32.0312-41.9922 32.2266-42.5293 32.666-42.9688L35.4004-45.752C37.207-47.5586 38.2812-49.1211 38.2812-50.9766C38.2812-52.3926 37.6465-54.0039 36.2305-55.957L27.832-67.7734C26.3672-69.7754 24.2676-70.6543 21.9727-70.6543C19.3359-70.6543 16.6992-69.5312 14.4043-67.3828C10.498-63.7207 8.78906-59.2285 8.78906-54.1992C8.78906-42.8223 17.5781-28.9551 29.248-17.334Z"/>
  </g>
  <g id="Medium-S" transform="matrix(1 0 0 1 1701.37 696)">
   <path d="M28.9062-17.4805C40.4297-5.95703 54.248 2.83203 65.4297 2.83203C70.4102 2.83203 74.8535 1.12305 78.3203-2.83203C80.4199-5.22461 81.5918-7.86133 81.5918-10.498C81.5918-12.5977 80.8105-14.5996 78.8574-15.9668L67.0898-24.3652C65.1367-25.7324 63.5742-26.3672 62.1582-26.3672C60.3027-26.3672 58.7891-25.293 57.0312-23.5352L54.248-20.8008C53.8574-20.3613 53.2715-20.2148 52.7832-20.2148C52.1484-20.2148 51.5625-20.459 51.1719-20.6543C48.7305-22.0215 44.6289-25.6348 40.8691-29.3945C37.1094-33.1543 33.4961-37.207 32.1289-39.6973C31.9336-40.0879 31.6895-40.6738 31.6895-41.3086C31.6895-41.7969 31.8359-42.334 32.2754-42.7734L35.0098-45.5078C36.7676-47.2656 37.8418-48.8281 37.8418-50.6836C37.8418-52.0508 37.207-53.6621 35.8398-55.6152L27.4414-67.334C26.0742-69.2871 24.0234-70.1172 21.8262-70.1172C19.2383-70.1172 16.6016-68.9941 14.3066-66.8457C10.498-63.2324 8.78906-58.7402 8.78906-53.8086C8.78906-42.5781 17.4316-28.9551 28.9062-17.4805Z"/>
  </g>
  <g id="Regular-S" transform="matrix(1 0 0 1 1405.31 696)">
   <path d="M28.5156-17.6758C39.7949-6.34766 53.418 2.29492 64.4043 2.29492C69.2871 2.29492 73.6328 0.585938 77.0508-3.32031C79.1504-5.66406 80.2734-8.30078 80.2734-10.8887C80.2734-12.8906 79.541-14.7461 77.7344-16.0156L65.9668-24.4141C64.0625-25.7812 62.5488-26.3672 61.1816-26.3672C59.375-26.3672 57.8613-25.3418 56.1035-23.6328L53.418-20.9473C52.9785-20.5078 52.4414-20.3613 51.9531-20.3613C51.3672-20.3613 50.7812-20.6055 50.3906-20.8008C47.9492-22.0703 43.9453-25.6836 40.2344-29.3457C36.5723-33.0566 32.959-37.0605 31.6895-39.4531C31.4941-39.8926 31.25-40.4297 31.25-41.0645C31.25-41.5527 31.3965-42.0898 31.8359-42.5293L34.5215-45.2148C36.2305-46.9238 37.3047-48.4863 37.3047-50.2441C37.3047-51.6113 36.6699-53.1738 35.3027-55.0781L26.9531-66.7969C25.6348-68.6523 23.7305-69.4336 21.6309-69.4336C19.0918-69.4336 16.4551-68.3105 14.209-66.1133C10.4492-62.5488 8.78906-58.1543 8.78906-53.3203C8.78906-42.2852 17.2363-28.9062 28.5156-17.6758Z"/>
  </g>
  <g id="Light-S" transform="matrix(1 0 0 1 1109.11 696)">
   <path d="M27.9785-18.1641C38.8184-7.32422 52.1484 1.17188 63.1348 1.17188C68.1152 1.17188 72.4121-0.585938 75.8789-4.3457C77.8809-6.54297 79.248-9.17969 79.248-11.7676C79.248-13.623 78.5645-15.4297 76.709-16.748L64.9902-25C63.3301-26.2207 61.8652-26.8066 60.498-26.8066C58.7891-26.8066 57.1777-25.8301 55.4199-24.1211L52.6855-21.4355C52.2461-20.9961 51.709-20.8496 51.2207-20.8496C50.6348-20.8496 50.0977-21.0449 49.707-21.2402C47.4121-22.4609 43.3105-25.8301 39.502-29.6387C35.6445-33.4961 32.2754-37.5488 31.1035-39.8926C30.9082-40.2832 30.7129-40.8203 30.7129-41.3574C30.7129-41.7969 30.8594-42.334 31.25-42.7246L33.9844-45.5566C35.6934-47.3633 36.6211-48.9258 36.6211-50.6836C36.6211-52.0508 36.0352-53.4668 34.8145-55.1758L26.709-66.6504C25.3418-68.5059 23.4863-69.3359 21.4355-69.3359C18.9453-69.3359 16.3574-68.1641 14.1113-65.9668C10.4004-62.4023 8.78906-58.0078 8.78906-53.1738C8.78906-42.1875 17.0898-28.9551 27.9785-18.1641Z"/>
  </g>
  <g id="Thin-S" transform="matrix(1 0 0 1 813.063 696)">
   <path d="M27.2461-18.7988C37.4512-8.54492 50.5371-0.341797 61.4746-0.341797C66.5527-0.341797 70.8496-2.05078 74.4141-5.76172C76.2207-7.66602 77.9297-10.3516 77.9297-12.9395C77.9297-14.6484 77.1973-16.3086 75.3418-17.627L63.6719-25.8301C62.3047-26.7578 60.9863-27.3438 59.6191-27.3438C57.959-27.3438 56.2988-26.5137 54.4922-24.7559L51.6602-22.0703C51.2695-21.6309 50.7812-21.4844 50.2441-21.4844C49.7559-21.4844 49.2676-21.6309 48.8281-21.8262C46.6797-22.9492 42.5293-26.0254 38.4766-30.0781C34.4727-34.0332 31.2988-38.1836 30.2734-40.4297C30.0781-40.8691 29.9805-41.3086 29.9805-41.6992C29.9805-42.1387 30.127-42.627 30.5176-43.0176L33.252-45.9961C34.9609-47.9004 35.7422-49.5605 35.7422-51.1719C35.7422-52.5391 35.2051-53.9062 34.1797-55.2734L26.3672-66.4062C25-68.3594 23.1445-69.2383 21.1426-69.2383C18.75-69.2383 16.2598-68.0176 14.0137-65.8203C10.4004-62.2559 8.78906-57.8613 8.78906-53.0273C8.78906-42.0898 16.9434-29.0527 27.2461-18.7988Z"/>
  </g>
  <g id="Ultralight-S" transform="matrix(1 0 0 1 516.718 696)">
   <path d="M26.8555-19.0918C36.7676-9.17969 49.707-1.07422 60.6445-1.07422C65.7715-1.07422 70.0195-2.83203 73.6328-6.49414C75.3906-8.25195 77.1973-10.9375 77.1973-13.5254C77.1973-15.1855 76.5137-16.7969 74.6094-18.1152L62.9883-26.2207C61.7676-27.0996 60.498-27.6367 59.1309-27.6367C57.5684-27.6367 55.8594-26.8555 54.0039-25.0977L51.123-22.3633C50.7324-21.9727 50.2441-21.7773 49.707-21.7773C49.2676-21.7773 48.8281-21.9727 48.3887-22.168C46.3379-23.1934 42.0898-26.123 37.9395-30.2734C33.8867-34.375 30.8105-38.4766 29.8828-40.7227C29.6875-41.1621 29.5898-41.5527 29.5898-41.8945C29.5898-42.334 29.7363-42.7734 30.127-43.1641L32.8613-46.2402C34.5703-48.1934 35.3027-49.9023 35.3027-51.4648C35.3027-52.832 34.7656-54.1016 33.8867-55.3711L26.2207-66.3086C24.8047-68.2617 22.9492-69.1406 20.9961-69.1406C18.6523-69.1406 16.1621-67.9199 13.916-65.6738C10.3516-62.1094 8.78906-57.7148 8.78906-52.9297C8.78906-42.041 16.7969-29.1016 26.8555-19.0918Z"/>
  </g>
 </g>
</svg>
